{"title":"Step.Brothers.Extended.Edition.2008.1080p.BRRip.x264.AC3-Kay","uid":9731820,"size":3472838450,"categoryP":"video","categoryS":"hd___movies","magnet":"?xt=urn:btih:ee4df0b66dd918801ea5997566085ef115703e6b&amp;dn=Step.Brothers.Extended.Edition.2008.1080p.BRRip.x264.AC3-Kay&amp;tr=udp%3A%2F%2Ftracker.openbittorrent.com%3A80&amp;tr=udp%3A%2F%2Fopen.demonii.com%3A1337&amp;tr=udp%3A%2F%2Ftracker.coppersurfer.tk%3A6969&amp;tr=udp%3A%2F%2Fexodus.desync.com%3A6969","seeders":7,"leechers":4,"uploader":"thegame2012","files":-1,"time":1394393985,"description":"Step.Brothers.Extended.Edition.2008.1080p.BRRip.x264.AC3-Kay\n\nExtended Edition with Audio Commentary on Track Two. Commentary features Will Ferrell, John C. Reilly and Adam McKay.\n\n\nGeneral\nFile size                        : 3.20 GiB\nDuration                         : 1h 45mn\nOverall bit rate                 : 4 344 Kbps\n\n\nVideo\nID                               : 1\nFormat                           : AVC\nFormat/Info                      : Advanced Video Codec\nFormat profile                   : &lt;a class=&quot;__cf_email__&quot; href=&quot;/cdn-cgi/l/email-protection&quot; data-cfemail=&quot;753d1c121d3539405b45&quot;&gt;[email&amp;#160;protected]&lt;/a&gt;&lt;script cf-hash='f9e31' type=&quot;text/javascript&quot;&gt;\n/* &lt;![CDATA[ */!function(){try{var t=&quot;currentScript&quot;in document?document.currentScript:function(){for(var t=document.getElementsByTagName(&quot;script&quot;),e=t.length;e--;)if(t[e].getAttribute(&quot;cf-hash&quot;))return t[e]}();if(t&amp;&amp;t.previousSibling){var e,r,n,i,c=t.previousSibling,a=c.getAttribute(&quot;data-cfemail&quot;);if(a){for(e=&quot;&quot;,r=parseInt(a.substr(0,2),16),n=2;a.length-n;n+=2)i=parseInt(a.substr(n,2),16)^r,e+=String.fromCharCode(i);e=document.createTextNode(e),c.parentNode.replaceChild(e,c)}}}catch(u){}}();/* ]]&gt; */&lt;/script&gt;\nFormat settings, CABAC           : Yes\nFormat settings, ReFrames        : 5 frames\nDuration                         : 1h 45mn\nBit rate                         : 3 170 Kbps\nNominal bit rate                 : 3 250 Kbps\nWidth                            : 1 920 pixels\nHeight                           : 800 pixels\nDisplay aspect ratio             : 2.35:1\nFrame rate                       : 23.976 fps\nResolution                       : 8 bits\nColorimetry                      : 4:2:0\nScan type                        : Progressive\nBits/(Pixel*Frame)               : 0.086\nStream size                      : 2.33 GiB (73%)\nWriting library                  : x264 core 133 r2334 a3ac64b\n\n\nAudio #1\nID                               : 2\nFormat                           : AC-3\nFormat/Info                      : Audio Coding 3\nCodec ID                         : A_AC3\nDuration                         : 1h 45mn\nBit rate mode                    : Constant\nBit rate                         : 448 Kbps\nChannel(s)                       : 6 channels\nChannel positions                : Front: L C R, Surround: L R, LFE\nSampling rate                    : 48.0 KHz\nStream size                      : 338 MiB (10%)\nLanguage                         : English\n\nAudio #2\nID                               : 3\nFormat                           : AC-3\nFormat/Info                      : Audio Coding 3\nCodec ID                         : A_AC3\nDuration                         : 1h 45mn\nBit rate mode                    : Constant\nBit rate                         : 640 Kbps\nChannel(s)                       : 2 channels\nChannel positions                : L R\nSampling rate                    : 48.0 KHz\nStream size                      : 483 MiB (15%)\nLanguage                         : English\n\n\nScreencaps: &lt;a href=&quot;\nhttp://imagizer.imageshack.us/v2/1024x768q90/23/3rwu.jpg&quot; rel=&quot;nofollow&quot; target=&quot;_NEW&quot;&gt;\nhttp://imagizer.imageshack.us/v2/1024x768q90/23/3rwu.jpg&lt;/a&gt; &lt;a href=&quot;\nhttp://imagizer.imageshack.us/v2/1024x768q90/845/cpql.jpg&quot; rel=&quot;nofollow&quot; target=&quot;_NEW&quot;&gt;\nhttp://imagizer.imageshack.us/v2/1024x768q90/845/cpql.jpg&lt;/a&gt; &lt;a href=&quot;\nhttp://imagizer.imageshack.us/v2/1024x768q90/855/hil6.jpg&quot; rel=&quot;nofollow&quot; target=&quot;_NEW&quot;&gt;\nhttp://imagizer.imageshack.us/v2/1024x768q90/855/hil6.jpg&lt;/a&gt; &lt;a href=&quot;\nhttp://imagizer.imageshack.us/v2/1024x768q90/837/7hf6.jpg&quot; rel=&quot;nofollow&quot; target=&quot;_NEW&quot;&gt;\nhttp://imagizer.imageshack.us/v2/1024x768q90/837/7hf6.jpg&lt;/a&gt; &lt;a href=&quot;\nhttp://imagizer.imageshack.us/v2/1024x768q90/822/mlp3.jpg&quot; rel=&quot;nofollow&quot; target=&quot;_NEW&quot;&gt;\nhttp://imagizer.imageshack.us/v2/1024x768q90/822/mlp3.jpg&lt;/a&gt; &lt;a href=&quot;\nhttp://imagizer.imageshack.us/v2/1024x768q90/62/y9z9.jpg&quot; rel=&quot;nofollow&quot; target=&quot;_NEW&quot;&gt;\nhttp://imagizer.imageshack.us/v2/1024x768q90/62/y9z9.jpg&lt;/a&gt;\n\n\nSample included. Please rate/comment/seed!\n\nThanks!\n\n-Kay\t\n","torrent":{"xt":"urn:btih:ee4df0b66dd918801ea5997566085ef115703e6b","amp;dn":"Step.Brothers.Extended.Edition.2008.1080p.BRRip.x264.AC3-Kay","amp;tr":["udp%3A%2F%2Ftracker.openbittorrent.com%3A80","udp%3A%2F%2Fopen.demonii.com%3A1337","udp%3A%2F%2Ftracker.coppersurfer.tk%3A6969","udp%3A%2F%2Fexodus.desync.com%3A6969"],"infoHash":"ee4df0b66dd918801ea5997566085ef115703e6b","infoHashBuffer":{"type":"Buffer","data":[238,77,240,182,109,217,24,128,30,165,153,117,102,8,94,241,21,112,62,107]},"announce":[],"urlList":[]}}